<svg width="200" height="200" viewBox="0 0 200 200" xmlns="http://www.w3.org/2000/svg">
  <defs>
    <path id="ml-top-arc" d="M 22,100 A 78,78 0 0,1 178,100"/>
    <path id="ml-bot-arc" d="M 38,148 A 68,68 0 0,0 162,148"/>
    <clipPath id="ml-circle-clip"><circle cx="100" cy="100" r="93"/></clipPath>
  </defs>

  <circle cx="100" cy="100" r="99" fill="#f5e8c4"/>

  <line x1="100" y1="63" x2="100" y2="23" stroke="#c9a227" stroke-width="2.2" opacity="0.85"/>
  <line x1="119.9" y1="68.1" x2="142.1" y2="34.4" stroke="#c9a227" stroke-width="2.2" opacity="0.85"/>
  <line x1="133.2" y1="82.6" x2="166.6" y2="60" stroke="#c9a227" stroke-width="2.2" opacity="0.85"/>
  <line x1="137" y1="100" x2="177" y2="100" stroke="#c9a227" stroke-width="2.2" opacity="0.85"/>
  <line x1="133.2" y1="117.4" x2="166.6" y2="140" stroke="#c9a227" stroke-width="2.2" opacity="0.85"/>
  <line x1="119.9" y1="131.9" x2="142.1" y2="165.6" stroke="#c9a227" stroke-width="2.2" opacity="0.85"/>
  <line x1="100" y1="137" x2="100" y2="177" stroke="#c9a227" stroke-width="2.2" opacity="0.85"/>
  <line x1="80.1" y1="131.9" x2="57.9" y2="165.6" stroke="#c9a227" stroke-width="2.2" opacity="0.85"/>
  <line x1="66.8" y1="117.4" x2="33.4" y2="140" stroke="#c9a227" stroke-width="2.2" opacity="0.85"/>
  <line x1="63" y1="100" x2="23" y2="100" stroke="#c9a227" stroke-width="2.2" opacity="0.85"/>
  <line x1="66.8" y1="82.6" x2="33.4" y2="60" stroke="#c9a227" stroke-width="2.2" opacity="0.85"/>
  <line x1="80.1" y1="68.1" x2="57.9" y2="34.4" stroke="#c9a227" stroke-width="2.2" opacity="0.85"/>

  <g clip-path="url(#ml-circle-clip)">
    <path d="M 7 150 Q 35 118 65 132 Q 85 108 100 118 Q 115 108 135 132 Q 165 118 193 150 L 193 200 L 7 200 Z" fill="#1e5c10"/>
    <path d="M 7 162 Q 45 135 80 148 Q 100 132 120 148 Q 155 135 193 162 L 193 200 L 7 200 Z" fill="#2d7a1a"/>
    <path d="M 7 175 Q 50 155 90 165 Q 100 158 110 165 Q 150 155 193 175 L 193 200 L 7 200 Z" fill="#3a9020"/>
  </g>

  <g transform="translate(100,52)">
    <path d="M 0,-2 Q -14,-18 -8,-30 Q -2,-18 0,-2 Z" fill="#2d7a1a" stroke="#1a5010" stroke-width="0.5"/>
    <path d="M 0,-2 Q 14,-18 8,-30 Q 2,-18 0,-2 Z" fill="#2d7a1a" stroke="#1a5010" stroke-width="0.5"/>
    <line x1="0" y1="-2" x2="0" y2="-32" stroke="#1a5010" stroke-width="1.5"/>
    <path d="M 0,-32 Q -6,-42 0,-48 Q 6,-42 0,-32 Z" fill="#3a9020"/>
  </g>

  <rect x="14" y="92" width="172" height="38" rx="5" fill="#c0392b"/>
  <rect x="14" y="92" width="172" height="38" rx="5" fill="none" stroke="#9a2820" stroke-width="1.5"/>
  <text x="100" y="117" text-anchor="middle" fill="white" font-size="17.5" font-weight="900" font-family="Georgia, serif" letter-spacing="2.5">MEADOWLINE</text>

  <text font-size="10.5" font-weight="700" font-family="Georgia, serif" fill="#1e3a10" letter-spacing="3">
    <textPath href="#ml-top-arc" startOffset="50%" text-anchor="middle">LAWN &amp; GARDEN CO.</textPath>
  </text>

  <circle cx="12" cy="100" r="2.5" fill="#1e3a10"/>
  <circle cx="188" cy="100" r="2.5" fill="#1e3a10"/>
  <circle cx="100" cy="12" r="2.5" fill="#1e3a10"/>
  <circle cx="100" cy="188" r="2.5" fill="#1e3a10"/>

  <g transform="translate(62,143)" fill="#c9a227" stroke="#a07820" stroke-width="0.4">
    <line x1="0" y1="0" x2="0" y2="-10" stroke="#c9a227" stroke-width="1"/>
    <ellipse cx="-3" cy="-5" rx="2.5" ry="4" transform="rotate(-20 -3 -5)"/>
    <ellipse cx="3" cy="-7" rx="2.5" ry="4" transform="rotate(20 3 -7)"/>
  </g>
  <g transform="translate(138,143) scale(-1,1)" fill="#c9a227" stroke="#a07820" stroke-width="0.4">
    <line x1="0" y1="0" x2="0" y2="-10" stroke="#c9a227" stroke-width="1"/>
    <ellipse cx="-3" cy="-5" rx="2.5" ry="4" transform="rotate(-20 -3 -5)"/>
    <ellipse cx="3" cy="-7" rx="2.5" ry="4" transform="rotate(20 3 -7)"/>
  </g>

  <text font-size="9.5" font-weight="700" font-family="Georgia, serif" fill="#7a5010" letter-spacing="3">
    <textPath href="#ml-bot-arc" startOffset="50%" text-anchor="middle">· EST. 2025 ·</textPath>
  </text>

  <circle cx="100" cy="100" r="93" fill="none" stroke="#1e3a10" stroke-width="1"/>
  <circle cx="100" cy="100" r="99" fill="none" stroke="#1e3a10" stroke-width="4"/>
</svg>
